HIERARCHY
ROOT Hips
{
	OFFSET	0.00	0.00	0.00
	CHANNELS 6 Xposition Yposition Zposition Zrotation Xrotation Yrotation
	JOINT Spine
	{
		OFFSET	 0.00	0.01	 0.00
		CHANNELS 3 Zrotation Xrotation Yrotation
		JOINT Spine1
		{
			OFFSET	 0.00	 2.45913012437421	 0.00
			CHANNELS 3 Zrotation Xrotation Yrotation
            JOINT Neck
            {
                OFFSET	 0.00	 2.48462964506057	 0.00
                CHANNELS 3 Zrotation Xrotation Yrotation
                JOINT Head
                {
                    OFFSET	 0.00	 0.927524780924562	 0.00
                    CHANNELS 3 Zrotation Xrotation Yrotation
                    End Site 
                    {
                        OFFSET	 0.00	 1.14999962169752	 0.00
                    }
                }
            }
			JOINT LeftShoulder
			{
				OFFSET	 0.00	 2.48462964506057	 0.00
				CHANNELS 3 Zrotation Xrotation Yrotation
				JOINT LeftUpArm
				{
					OFFSET	 0.00	 1.24881979654096	 0.00
					CHANNELS 3 Zrotation Xrotation Yrotation
					JOINT LeftForeArm
					{
						OFFSET	 0.00	2.59758046908119	 0.00
						CHANNELS 3 Zrotation Xrotation Yrotation
						JOINT LeftHand
						{
							OFFSET	 0.00	2.45542024364365	 0.00
							CHANNELS 3 Zrotation Xrotation Yrotation
							JOINT LeftHandThumb 
							{
								OFFSET	 0.00	0.00	 0.00
								CHANNELS 3 Zrotation Xrotation Yrotation
								End Site
								{
									OFFSET	 0.00	0.00	1.00000003353624
								}
							}
							JOINT L_Wrist_End 
							{
								OFFSET	 0.00	0.99999967115358	 0.00
								CHANNELS 3 Zrotation Xrotation Yrotation
								End Site 
								{
									OFFSET	 0.00	 0.00	 0.00
								}
							}
						}
					}
				}
			}
			JOINT RightShoulder
			{
				OFFSET	 0.00	 2.48462964506057	 0.00
				CHANNELS 3 Zrotation Xrotation Yrotation
				JOINT RightUpArm
				{
					OFFSET	 0.00	 1.24881979654096	 0.00
					CHANNELS 3 Zrotation Xrotation Yrotation
					JOINT RightForeArm
					{
						OFFSET	 0.00	2.59758046908119	 0.00
						CHANNELS 3 Zrotation Xrotation Yrotation
						JOINT RightHand
						{
							OFFSET	 0.00	2.45542024364365	 0.00
							CHANNELS 3 Zrotation Xrotation Yrotation
							JOINT RightHandThumb 
							{
								OFFSET	 0.00	0.00	 0.00
								CHANNELS 3 Zrotation Xrotation Yrotation
								End Site
								{
									OFFSET	 0.00	0.00	1.00000003353624
								}
							}
							JOINT R_Wrist_End 
							{
								OFFSET	 0.00	0.99999967115358	 0.00
								CHANNELS 3 Zrotation Xrotation Yrotation
								End Site 
								{
									OFFSET	 0.00	 0.00	 0.00
								}
							}
						}
					}
				}
			}
		}
	}
	JOINT LeftUpLeg
	{
		OFFSET	 1.2719394002717	 0.00	 0.00
		CHANNELS 3 Zrotation Xrotation Yrotation
		JOINT LeftLowLeg
		{
			OFFSET	 0.00	-4.3429100912261	 0.00
			CHANNELS 3 Zrotation Xrotation Yrotation
			JOINT LeftFoot
			{
				OFFSET	 0.00	-4.48767017425826	 0.00
				CHANNELS 3 Zrotation Xrotation Yrotation
				JOINT LeftToeBase
                {
                    OFFSET	 0.00	0.00	 1.51507020887566
                    CHANNELS 3 Zrotation Xrotation Yrotation
                    End Site 
                    {
                        OFFSET	 0.00	0.00	 0.75000010571191
                    }
                }
			}
		}
	}
	JOINT RightUpLeg
	{
		OFFSET	 -1.2719393604653	 0.00	 0.00
		CHANNELS 3 Zrotation Xrotation Yrotation
		JOINT RightLowLeg
		{
			OFFSET	 0.00	-4.3429100912261	 0.00
			CHANNELS 3 Zrotation Xrotation Yrotation
			JOINT RightFoot
			{
				OFFSET	 0.00	-4.48767017425826	 0.00
				CHANNELS 3 Zrotation Xrotation Yrotation
				JOINT RightToeBase
                {
                    OFFSET	 0.00	0.00	 1.51507020887566
                    CHANNELS 3 Zrotation Xrotation Yrotation
                    End Site 
                    {
                        OFFSET	 0.00	0.00	 0.749999965609858
                    }
                }   
			}
		}
	}
}
MOTION 
Frames:	16 
Frame Time: 0.02 
  -3.9220199584960938 -3.5869100952148436 4.930020141601562 108.053 74.0211 -466.946 -0.812394 4.4865 -3.45286 -5.63547 3.16143 -6.50317 6.67144 34.9595 374.638 -71.8099 -60.3422 296.641 -111.1508 -1.89771 365.547 -42.0582 20.904 9.78473 0.0 100.741 0.0 40.2511 -0.400382 20.2623 0.0 0.0 0.0 0.0 0.0 0.0 107.4493 -2.58276 -357.318 33.2514 33.6615 -343.289 0.0 116.055 0.0 -18.7764 5.11792 -5.43189 0.0 0.0 0.0 0.0 0.0 0.0 43.1033 -80.5785 -295.455 0.0 117.546 0.0 -4.77028 -5.3015995 -12.182 0.0 -36.7379 0.0 -9.40647 -19.0453 -22.9227 0.0 125.446 0.0 48.1055 -12.0734005 7.9778 0.0 -81.7384 0.0 
  -3.930769958496094 -3.6020498657226563 4.933699951171875 107.685 73.9822 -466.671 -0.962507 4.09586 -3.41092 -5.88645 3.06065 -6.5236 7.12171 35.7809 374.224 -71.7747 -60.301 297.0 -111.184 -1.97762 365.437 -41.8816 21.1186 10.3966 0.0 100.651 0.0 39.7482 -0.338884 20.2854 0.0 0.0 0.0 0.0 0.0 0.0 106.9894 -2.6941 -356.604 32.8949 35.2187 -343.264 0.0 116.883 0.0 -18.6498 5.7817 -6.28521 0.0 0.0 0.0 0.0 0.0 0.0 42.8756 -80.1426 -295.766 0.0 117.567 0.0 -5.07834 -5.3703995 -12.9308 0.0 -36.803497 0.0 -9.33539 -18.8699 -22.839 0.0 125.194 0.0 46.7466 -11.766199 7.34858 0.0 -81.7374 0.0 
  -3.940409851074219 -3.61760986328125 4.939719848632812 106.797 73.9418 -465.856 -1.14685 3.86691 -3.37172 -6.20448 2.9311 -6.55767 7.81224 36.6361 373.641 -71.8662 -60.3329 297.266 -111.245 -2.08201 365.516 -41.6135 21.44 11.0072 0.0 100.625 0.0 39.724 -0.461639 20.373 0.0 0.0 0.0 0.0 0.0 0.0 106.6662 -2.80068 -356.072 32.399 36.7494 -343.046 0.0 117.285 0.0 -18.5972 6.70903 -7.22323 0.0 0.0 0.0 0.0 0.0 0.0 41.7829 -79.6592 -296.967 0.0 117.551 0.0 -5.30208 -5.3978996 -13.6362 0.0 -36.9141 0.0 -9.28596 -18.4509 -22.7274 0.0 124.951 0.0 47.6301 -11.953899 7.48607 0.0 -81.735 0.0 
  -3.9496600341796877 -3.6332000732421874 4.945700073242188 106.0 73.9352 -465.104 -1.29083 3.55502 -3.3044 -6.57607 2.89824 -6.54297 8.59701 37.4799 373.041 -71.8166 -60.4219 297.522 -111.2815 -2.10213 365.661 -41.3839 21.7388 11.5368 0.0 100.623 0.0 39.5466 -0.579083 20.3507 0.0 0.0 0.0 0.0 0.0 0.0 106.3411 -2.87402 -355.76 31.8615 38.134 -342.492 0.0 117.331 0.0 -18.3908 7.52529 -8.08983 0.0 0.0 0.0 0.0 0.0 0.0 40.8525 -79.2599 -298.035 0.0 117.556 0.0 -5.66964 -5.3295994 -14.3042 0.0 -37.0793 0.0 -9.21927 -18.0289 -22.6386 0.0 124.643 0.0 48.2009 -11.9359 7.43682 0.0 -81.7333 0.0 
  -3.961369934082031 -3.6476400756835936 4.950320129394531 105.722 73.8959 -464.826 -1.48707 3.1548 -3.21931 -6.89107 2.78093 -6.5322 9.39487 38.3604 372.423 -71.6369 -60.4929 297.861 -111.3449 -2.06461 365.67 -41.1645 21.7776 12.1962 0.0 100.667 0.0 39.3681 -0.499198 20.3499 0.0 0.0 0.0 0.0 0.0 0.0 106.0083 -3.00972 -355.424 31.5467 39.3426 -342.1 0.0 116.961 0.0 -18.3289 8.48001 -8.97175 0.0 0.0 0.0 0.0 0.0 0.0 40.6811 -79.0131 -298.334 0.0 117.607 0.0 -5.99492 -5.1665993 -14.8343 0.0 -37.151 0.0 -9.12672 -17.7534 -22.6002 0.0 124.383 0.0 48.0006 -11.8916 7.43667 0.0 -81.7322 0.0 
  -3.974519958496094 -3.661579895019531 4.953240051269531 105.642 73.8632 -464.777 -1.71604 2.69011 -3.07828 -7.15694 2.6873 -6.46195 10.2937 39.1738 371.674 -71.2181 -60.5364 298.451 -111.367905 -2.07607 365.788 -40.9977 21.9372 12.8458 0.0 100.661 0.0 39.0976 -0.423729 20.2176 0.0 0.0 0.0 0.0 0.0 0.0 105.6635 -3.18404 -355.078 31.407 40.3417 -341.858 0.0 116.265 0.0 -18.5454 9.1941 -9.84252 0.0 0.0 0.0 0.0 0.0 0.0 40.9762 -78.8153 -298.177 0.0 117.678 0.0 -6.20075 -5.0023003 -15.2158 0.0 -37.289497 0.0 -8.98432 -17.5798 -22.5173 0.0 124.149 0.0 47.7931 -11.8395 7.40639 0.0 -81.7312 0.0 
  -3.988179931640625 -3.678039855957031 4.956080017089843 105.378 73.857 -464.426 -1.87006 2.26788 -3.0368 -7.54072 2.59614 -6.48502 11.2984 40.0311 370.86 -70.9008 -60.618 299.07 -111.4025 -2.18821 365.765 -40.8126 21.9456 13.5965 0.0 100.665 0.0 39.1833 -0.335126 20.9081 0.0 0.0 0.0 0.0 0.0 0.0 105.4569 -3.25749 -354.771 31.3557 41.1108 -341.683 0.0 115.297 0.0 -18.6061 9.56795 -10.852 0.0 0.0 0.0 0.0 0.0 0.0 40.6078 -78.6751 -298.711 0.0 117.749 0.0 -6.35892 -4.8206005 -15.5293 0.0 -37.4498 0.0 -8.89152 -17.3094 -22.7071 0.0 123.929 0.0 40.2679 -9.276199 4.25921 0.0 -80.4749 0.0 
  -4.002229919433594 -3.6923599243164062 4.957070007324218 105.352 73.8964 -464.312 -2.03374 1.86962 -2.93149 -7.77966 2.42826 -6.4529 12.1584 40.7833 370.139 -70.2202 -60.6259 299.925 -111.4388 -2.13709 365.783 -40.7125 21.7851 14.2974 0.0 100.73 0.0 39.2252 -0.436414 21.1848 0.0 0.0 0.0 0.0 0.0 0.0 105.1989 -3.44674 -354.523 31.5548 41.6759 -341.596 0.0 114.131 0.0 -18.6971 9.56213 -10.5582 0.0 0.0 0.0 0.0 0.0 0.0 40.5327 -78.6151 -298.999 0.0 117.842 0.0 -6.48721 -4.7246 -15.7442 0.0 -37.617 0.0 -8.70254 -17.0942 -22.7269 0.0 123.685 0.0 40.2083 -9.1803 4.23618 0.0 -81.8286 0.0 
  -4.0164401245117185 -3.7068701171875 4.957430114746094 105.482 73.9462 -464.32 -2.14455 1.39723 -2.85036 -8.07205 2.36728 -6.42184 12.8319 41.4906 369.676 -69.6278 -60.6898 300.476 -111.4549 -2.14617 365.772 -40.621 21.6264 14.9651 0.0 100.805 0.0 39.174 -0.61639 20.9265 0.0 0.0 0.0 0.0 0.0 0.0 104.9844 -3.52023 -354.262 31.9598 41.9133 -341.55 0.0 112.815 0.0 -18.3283 9.22058 -10.3036 0.0 0.0 0.0 0.0 0.0 0.0 40.5006 -78.6101 -299.261 0.0 117.945 0.0 -6.63962 -4.6585007 -15.9611 0.0 -37.6789 0.0 -8.49658 -16.8972 -22.7776 0.0 123.436 0.0 40.0837 -9.09 4.17168 0.0 -82.0714 0.0 
  -4.0306399536132815 -3.72093994140625 4.957969970703125 105.656 73.9769 -464.373 -2.27914 0.957969 -2.78648 -8.30343 2.27823 -6.41172 13.3248 42.1491 369.391 -69.2411 -60.755 300.829 -111.5514 -2.28146 365.768 -40.4919 21.5035 15.5986 0.0 100.788 0.0 39.0901 -0.516471 20.7225 0.0 0.0 0.0 0.0 0.0 0.0 104.9584 -3.49958 -354.367 32.0593 42.1701 -341.165 0.0 111.35 0.0 -18.1499 8.80659 -10.0486 0.0 0.0 0.0 0.0 0.0 0.0 40.368 -78.6318 -299.602 0.0 118.029 0.0 -6.74325 -4.6376 -16.0881 0.0 -37.7676 0.0 -8.30974 -16.7074 -22.8347 0.0 123.195 0.0 40.1692 -9.024599 4.23563 0.0 -81.7031 0.0 
  -4.044490051269531 -3.734119873046875 4.958450012207031 105.868 74.0004 -464.447 -2.42308 0.473031 -2.74759 -8.5199 2.30676 -6.40001 13.7271 42.6702 369.197 -68.7207 -60.8283 301.241 -111.652 -2.41884 365.738 -40.3572 21.3311 16.1781 0.0 100.832 0.0 39.0941 -0.579827 20.8023 0.0 0.0 0.0 0.0 0.0 0.0 104.9202 -3.52781 -354.3 32.7063 42.1079 -341.344 0.0 109.682 0.0 -18.2948 8.45024 -9.8474 0.0 0.0 0.0 0.0 0.0 0.0 40.1821 -78.6737 -299.983 0.0 118.099 0.0 -6.83821 -4.638399 -16.212 0.0 -37.837097 0.0 -8.11773 -16.5281 -22.8827 0.0 122.946 0.0 40.4678 -8.9314995 4.39601 0.0 -81.0897 0.0 
  -4.058659973144532 -3.7477301025390624 4.959309997558594 106.109 73.9888 -464.566 -2.55612 0.00591046 -2.67435 -8.79345 2.30123 -6.36055 14.1545 43.2268 368.991 -68.3947 -60.9277 301.39 -111.7426 -2.54259 365.755 -40.1884 21.0907 16.6959 0.0 100.873 0.0 38.9349 -0.610782 20.6835 0.0 0.0 0.0 0.0 0.0 0.0 105.0673 -3.5913 -354.473 33.2617 41.9556 -341.384 0.0 107.918 0.0 -18.2393 7.40308 -8.94157 0.0 0.0 0.0 0.0 0.0 0.0 40.0853 -78.7076 -300.245 0.0 118.164 0.0 -6.92946 -4.5986004 -16.3284 0.0 -37.969902 0.0 -7.94866 -16.3714 -22.9322 0.0 122.712 0.0 40.7583 -8.8965 4.5368 0.0 -80.3327 0.0 
  -4.074150085449219 -3.759429931640625 4.959240112304688 106.405 74.0202 -464.821 -2.67266 -0.412666 -2.55652 -8.98298 2.22839 -6.2848 14.4013 43.6677 368.848 -67.8215 -60.9033 301.679 -111.8356 -2.63797 365.685 -40.0922 20.7261 17.2944 0.0 100.863 0.0 39.1274 -0.681987 20.7241 0.0 0.0 0.0 0.0 0.0 0.0 105.2107 -3.51907 -354.506 34.0761 41.3439 -341.738 0.0 106.168 0.0 -18.1619 6.33565 -8.00319 0.0 0.0 0.0 0.0 0.0 0.0 40.5815 -78.7041 -299.965 0.0 118.263 0.0 -7.0324 -4.512501 -16.4652 0.0 -38.1053 0.0 -7.72758 -16.2937 -22.9305 0.0 122.444 0.0 40.6087 -8.601101 4.59108 0.0 -81.0454 0.0 
  -4.086709899902344 -3.7714898681640623 4.959979858398437 106.633 73.9513 -464.956 -2.83049 -0.845815 -2.45911 -9.15365 2.23963 -6.20666 14.4406 44.0222 368.896 -67.3157 -60.8608 301.946 -111.953 -2.73925 365.602 -39.9863 20.3309 17.7177 0.0 100.868 0.0 38.8005 -0.796024 20.4264 0.0 0.0 0.0 0.0 0.0 0.0 105.4012 -3.53673 -354.655 34.8756 40.7656 -342.064 0.0 104.275 0.0 -17.7253 4.76778 -5.84765 0.0 0.0 0.0 0.0 0.0 0.0 40.6584 -78.757 -299.985 0.0 118.325 0.0 -7.09445 -4.3766003 -16.5441 0.0 -38.2243 0.0 -7.65199 -16.1882 -22.9995 0.0 122.253 0.0 40.5543 -8.604799 4.53553 0.0 -81.1062 0.0 
  -4.098699951171875 -3.782659912109375 4.961449890136719 106.844 73.8344 -465.082 -3.01074 -1.26957 -2.36392 -9.29034 2.21647 -6.13534 14.2813 44.4165 369.114 -66.8195 -60.7578 302.155 -112.0621 -2.80866 365.513 -39.8956 19.8424 18.1321 0.0 100.799 0.0 38.7519 -0.81132 20.3126 0.0 0.0 0.0 0.0 0.0 0.0 105.5284 -3.526 -354.62 35.9759 39.802 -342.854 0.0 102.301 0.0 -17.0143 3.09198 -3.42343 0.0 0.0 0.0 0.0 0.0 0.0 40.7368 -78.8171 -299.96 0.0 118.367 0.0 -7.18138 -4.1695004 -16.6343 0.0 -38.4474 0.0 -7.62983 -16.0964 -23.0874 0.0 122.152 0.0 40.6275 -8.8417 4.42073 0.0 -80.0667 0.0 
  -4.1098699951171875 -3.7925601196289063 4.962980041503906 107.102 73.7072 -465.287 -3.10481 -1.67022 -2.25123 -9.52822 2.16592 -6.05887 14.0504 44.7198 369.371 -66.2528 -60.6287 302.403 -112.1061 -2.9247 365.416 -39.7866 19.3748 18.5303 0.0 100.68 0.0 38.7014 -0.794488 20.1799 0.0 0.0 0.0 0.0 0.0 0.0 105.8023 -3.54766 -354.79 36.9025 38.9305 -343.467 0.0 100.129 0.0 -15.9357 1.63284 -1.13134 0.0 0.0 0.0 0.0 0.0 0.0 40.9783 -78.8652 -299.74 0.0 118.408 0.0 -7.27773 -3.9636993 -16.7056 0.0 -38.564598 0.0 -7.62088 -16.065 -23.1532 0.0 122.011 0.0 40.3918 -8.872601 4.26477 0.0 -80.0263 0.0 
